<?xml version="1.0" standalone="no"?>
<!DOCTYPE svg PUBLIC "-//W3C//DTD SVG 20010904//EN"
 "http://www.w3.org/TR/2001/REC-SVG-20010904/DTD/svg10.dtd">
<svg version="1.0" xmlns="http://www.w3.org/2000/svg"
 width="158.000000pt" height="139.000000pt" viewBox="0 0 158.000000 139.000000"
 preserveAspectRatio="xMidYMid meet">
<metadata>
Created by potrace 1.16, written by Peter Selinger 2001-2019
</metadata>
<g transform="translate(0.000000,139.000000) scale(0.100000,-0.100000)"
fill="#000000" stroke="none">
<path d="M494 1315 c-48 -20 -58 -65 -24 -108 19 -23 20 -40 20 -238 0 -258
-9 -323 -55 -376 l-32 -38 -69 59 c-130 111 -204 227 -204 320 0 75 59 142
152 171 53 17 27 19 -44 4 -69 -15 -119 -41 -151 -79 -88 -104 -43 -247 127
-408 270 -255 754 -435 1083 -402 227 23 320 160 226 332 -36 67 -58 82 -32
23 55 -125 -10 -234 -163 -270 -150 -35 -377 -6 -590 77 -69 27 -75 42 -13 32
41 -6 45 -4 45 14 0 13 -9 22 -25 26 -15 4 -27 16 -31 31 -5 21 22 324 30 332
2 2 27 -45 55 -104 127 -262 147 -298 163 -301 18 -4 30 18 135 263 31 72 59
134 63 138 9 10 45 -316 37 -337 -4 -9 -18 -21 -32 -26 -14 -5 -25 -15 -25
-23 0 -10 25 -13 105 -13 92 0 105 2 105 17 0 10 -11 20 -25 23 -32 8 -40 38
-61 255 -21 205 -17 231 35 231 16 0 33 -4 36 -10 9 -15 51 -12 65 5 28 34
-21 77 -57 49 -11 -8 -45 -13 -91 -14 l-72 0 -25 -55 c-13 -30 -54 -128 -91
-217 -37 -90 -70 -167 -74 -171 -4 -4 -16 14 -28 40 -11 26 -59 128 -107 226
l-86 177 -47 0 c-27 0 -53 5 -59 11 -6 6 -21 9 -34 7 -19 -2 -24 -9 -24 -33 0
-29 2 -30 42 -28 38 2 44 -1 49 -23 7 -27 -22 -349 -37 -406 -7 -27 -17 -39
-38 -46 -26 -9 -38 -5 -106 35 l-77 46 41 37 c77 71 84 101 88 375 4 198 7
246 21 272 33 65 -26 127 -94 98z"/>
</g>
</svg>
